<?xml version="1.0" encoding="UTF-8" standalone="no"?>
<!-- Created with Inkscape (http://www.inkscape.org/) -->

<svg
   xmlns:dc="http://purl.org/dc/elements/1.1/"
   xmlns:cc="http://creativecommons.org/ns#"
   xmlns:rdf="http://www.w3.org/1999/02/22-rdf-syntax-ns#"
   xmlns:svg="http://www.w3.org/2000/svg"
   xmlns="http://www.w3.org/2000/svg"
   xmlns:sodipodi="http://sodipodi.sourceforge.net/DTD/sodipodi-0.dtd"
   xmlns:inkscape="http://www.inkscape.org/namespaces/inkscape"
   id="svg5432"
   version="1.1"
   inkscape:version="0.48.4 r9939"
   width="535"
   height="396.25"
   xml:space="preserve"
   sodipodi:docname="duplicated nodes.eps.2016_04_16_12_03_18.0.svg"><metadata
     id="metadata5438"><rdf:RDF><cc:Work
         rdf:about=""><dc:format>image/svg+xml</dc:format><dc:type
           rdf:resource="http://purl.org/dc/dcmitype/StillImage" /></cc:Work></rdf:RDF></metadata><defs
     id="defs5436"><clipPath
       clipPathUnits="userSpaceOnUse"
       id="clipPath5448"><path
         d="m 0,0 4275,0 0,3165 L 0,3165 0,0 z"
         id="path5450" /></clipPath></defs><sodipodi:namedview
     pagecolor="#ffffff"
     bordercolor="#666666"
     borderopacity="1"
     objecttolerance="30"
     gridtolerance="10000"
     guidetolerance="10"
     inkscape:pageopacity="0"
     inkscape:pageshadow="2"
     inkscape:window-width="1855"
     inkscape:window-height="1056"
     id="namedview5434"
     showgrid="true"
     showguides="true"
     inkscape:snap-global="true"
     inkscape:guide-bbox="true"
     inkscape:zoom="1.6845648"
     inkscape:cx="251.33365"
     inkscape:cy="149.54892"
     inkscape:window-x="1985"
     inkscape:window-y="112"
     inkscape:window-maximized="1"
     inkscape:current-layer="g5442"><inkscape:grid
       type="xygrid"
       id="grid6140"
       empspacing="5"
       visible="true"
       enabled="true"
       snapvisiblegridlinesonly="true"
       spacingx="0.1px"
       spacingy="0.1px"
       dotted="false" /><sodipodi:guide
       position="0,0"
       orientation="0,535"
       id="guide6148" /><sodipodi:guide
       position="535,0"
       orientation="-396.25,0"
       id="guide6150" /><sodipodi:guide
       position="535,396.25"
       orientation="0,-535"
       id="guide6152" /><sodipodi:guide
       position="0,396.25"
       orientation="396.25,0"
       id="guide6154" /></sodipodi:namedview><g
     id="g5440"
     inkscape:groupmode="layer"
     inkscape:label="ink_ext_XXXXXX"
     transform="matrix(1.25,0,0,-1.25,0,396.25)"><g
       id="g5442"
       transform="scale(0.1,0.1)"><g
         id="g5444"><g
           id="g5446"
           clip-path="url(#clipPath5448)"><path
             d="m 0,0 4275,0 0,3165 L 0,3165 0,0 z"
             style="fill:#ffffff;fill-opacity:1;fill-rule:nonzero;stroke:none"
             id="path5452" /></g></g><path
         d="m 0,0 4275,0 0,3165 L 0,3165 0,0 z"
         style="fill:#ffffff;fill-opacity:1;fill-rule:nonzero;stroke:none"
         id="path5454" /><path
         d="m 555,345 3315,0 0,2580 -3315,0 0,-2580 z"
         style="fill:#ffffff;fill-opacity:1;fill-rule:nonzero;stroke:none"
         id="path5456" /><path
         d="m 555,345 3315,0"
         style="fill:none;stroke:#262626;stroke-opacity:1;stroke-width:5.0025;stroke-linecap:square;stroke-linejoin:round;stroke-miterlimit:10;stroke-dasharray:none"
         id="path5458" /><path
         d="m 555,2925 3315,0"
         style="fill:none;stroke:#262626;stroke-opacity:1;stroke-width:5.0025;stroke-linecap:square;stroke-linejoin:round;stroke-miterlimit:10;stroke-dasharray:none"
         id="path5460" /><path
         d="m 555,345 0,33.148"
         style="fill:none;stroke:#262626;stroke-opacity:1;stroke-width:5.0025;stroke-linecap:square;stroke-linejoin:round;stroke-miterlimit:10;stroke-dasharray:none"
         id="path5462" /><path
         d="m 1028.57,345 0,33.148"
         style="fill:none;stroke:#262626;stroke-opacity:1;stroke-width:5.0025;stroke-linecap:square;stroke-linejoin:round;stroke-miterlimit:10;stroke-dasharray:none"
         id="path5464" /><path
         d="m 1502.14,345 0,33.148"
         style="fill:none;stroke:#262626;stroke-opacity:1;stroke-width:5.0025;stroke-linecap:square;stroke-linejoin:round;stroke-miterlimit:10;stroke-dasharray:none"
         id="path5466" /><path
         d="m 1975.72,345 0,33.148"
         style="fill:none;stroke:#262626;stroke-opacity:1;stroke-width:5.0025;stroke-linecap:square;stroke-linejoin:round;stroke-miterlimit:10;stroke-dasharray:none"
         id="path5468" /><path
         d="m 2449.28,345 0,33.148"
         style="fill:none;stroke:#262626;stroke-opacity:1;stroke-width:5.0025;stroke-linecap:square;stroke-linejoin:round;stroke-miterlimit:10;stroke-dasharray:none"
         id="path5470" /><path
         d="m 2922.86,345 0,33.148"
         style="fill:none;stroke:#262626;stroke-opacity:1;stroke-width:5.0025;stroke-linecap:square;stroke-linejoin:round;stroke-miterlimit:10;stroke-dasharray:none"
         id="path5472" /><path
         d="m 3396.43,345 0,33.148"
         style="fill:none;stroke:#262626;stroke-opacity:1;stroke-width:5.0025;stroke-linecap:square;stroke-linejoin:round;stroke-miterlimit:10;stroke-dasharray:none"
         id="path5474" /><path
         d="m 3870,345 0,33.148"
         style="fill:none;stroke:#262626;stroke-opacity:1;stroke-width:5.0025;stroke-linecap:square;stroke-linejoin:round;stroke-miterlimit:10;stroke-dasharray:none"
         id="path5476" /><path
         d="m 555,2925 0,-33.15"
         style="fill:none;stroke:#262626;stroke-opacity:1;stroke-width:5.0025;stroke-linecap:square;stroke-linejoin:round;stroke-miterlimit:10;stroke-dasharray:none"
         id="path5478" /><path
         d="m 1028.57,2925 0,-33.15"
         style="fill:none;stroke:#262626;stroke-opacity:1;stroke-width:5.0025;stroke-linecap:square;stroke-linejoin:round;stroke-miterlimit:10;stroke-dasharray:none"
         id="path5480" /><path
         d="m 1502.14,2925 0,-33.15"
         style="fill:none;stroke:#262626;stroke-opacity:1;stroke-width:5.0025;stroke-linecap:square;stroke-linejoin:round;stroke-miterlimit:10;stroke-dasharray:none"
         id="path5482" /><path
         d="m 1975.72,2925 0,-33.15"
         style="fill:none;stroke:#262626;stroke-opacity:1;stroke-width:5.0025;stroke-linecap:square;stroke-linejoin:round;stroke-miterlimit:10;stroke-dasharray:none"
         id="path5484" /><path
         d="m 2449.28,2925 0,-33.15"
         style="fill:none;stroke:#262626;stroke-opacity:1;stroke-width:5.0025;stroke-linecap:square;stroke-linejoin:round;stroke-miterlimit:10;stroke-dasharray:none"
         id="path5486" /><path
         d="m 2922.86,2925 0,-33.15"
         style="fill:none;stroke:#262626;stroke-opacity:1;stroke-width:5.0025;stroke-linecap:square;stroke-linejoin:round;stroke-miterlimit:10;stroke-dasharray:none"
         id="path5488" /><path
         d="m 3396.43,2925 0,-33.15"
         style="fill:none;stroke:#262626;stroke-opacity:1;stroke-width:5.0025;stroke-linecap:square;stroke-linejoin:round;stroke-miterlimit:10;stroke-dasharray:none"
         id="path5490" /><path
         d="m 3870,2925 0,-33.15"
         style="fill:none;stroke:#262626;stroke-opacity:1;stroke-width:5.0025;stroke-linecap:square;stroke-linejoin:round;stroke-miterlimit:10;stroke-dasharray:none"
         id="path5492" /><g
         id="g5494"
         transform="scale(10,10)"><text
           transform="matrix(1,0,0,-1,50.625,20.75)"
           id="text5496"><tspan
             style="fill:#262626;fill-opacity:1;fill-rule:nonzero;stroke:none;font-family:Helvetica;font-variant:normal;font-weight:normal;font-size:9.75;writing-mode:lr;-inkscape-font-specification:Helvetica"
             x="0 3.24675 48.857055 96.2144625 143.57148 190.9284975 238.285515 282.642945 288.063945 329.9999625 335.4209625"
             y="0"
             sodipodi:role="line"
             id="tspan5498">-2024681012</tspan></text>
</g><path
         d="m 555,345 0,2580"
         style="fill:none;stroke:#262626;stroke-opacity:1;stroke-width:5.0025;stroke-linecap:square;stroke-linejoin:round;stroke-miterlimit:10;stroke-dasharray:none"
         id="path5500" /><path
         d="m 3870,345 0,2580"
         style="fill:none;stroke:#262626;stroke-opacity:1;stroke-width:5.0025;stroke-linecap:square;stroke-linejoin:round;stroke-miterlimit:10;stroke-dasharray:none"
         id="path5502" /><path
         d="m 555,345 33.148,0"
         style="fill:none;stroke:#262626;stroke-opacity:1;stroke-width:5.0025;stroke-linecap:square;stroke-linejoin:round;stroke-miterlimit:10;stroke-dasharray:none"
         id="path5504" /><path
         d="m 555,603 33.148,0"
         style="fill:none;stroke:#262626;stroke-opacity:1;stroke-width:5.0025;stroke-linecap:square;stroke-linejoin:round;stroke-miterlimit:10;stroke-dasharray:none"
         id="path5506" /><path
         d="m 555,861 33.148,0"
         style="fill:none;stroke:#262626;stroke-opacity:1;stroke-width:5.0025;stroke-linecap:square;stroke-linejoin:round;stroke-miterlimit:10;stroke-dasharray:none"
         id="path5508" /><path
         d="m 555,1119 33.148,0"
         style="fill:none;stroke:#262626;stroke-opacity:1;stroke-width:5.0025;stroke-linecap:square;stroke-linejoin:round;stroke-miterlimit:10;stroke-dasharray:none"
         id="path5510" /><path
         d="m 555,1377 33.148,0"
         style="fill:none;stroke:#262626;stroke-opacity:1;stroke-width:5.0025;stroke-linecap:square;stroke-linejoin:round;stroke-miterlimit:10;stroke-dasharray:none"
         id="path5512" /><path
         d="m 555,1635 33.148,0"
         style="fill:none;stroke:#262626;stroke-opacity:1;stroke-width:5.0025;stroke-linecap:square;stroke-linejoin:round;stroke-miterlimit:10;stroke-dasharray:none"
         id="path5514" /><path
         d="m 555,1893 33.148,0"
         style="fill:none;stroke:#262626;stroke-opacity:1;stroke-width:5.0025;stroke-linecap:square;stroke-linejoin:round;stroke-miterlimit:10;stroke-dasharray:none"
         id="path5516" /><path
         d="m 555,2151 33.148,0"
         style="fill:none;stroke:#262626;stroke-opacity:1;stroke-width:5.0025;stroke-linecap:square;stroke-linejoin:round;stroke-miterlimit:10;stroke-dasharray:none"
         id="path5518" /><path
         d="m 555,2409 33.148,0"
         style="fill:none;stroke:#262626;stroke-opacity:1;stroke-width:5.0025;stroke-linecap:square;stroke-linejoin:round;stroke-miterlimit:10;stroke-dasharray:none"
         id="path5520" /><path
         d="m 555,2667 33.148,0"
         style="fill:none;stroke:#262626;stroke-opacity:1;stroke-width:5.0025;stroke-linecap:square;stroke-linejoin:round;stroke-miterlimit:10;stroke-dasharray:none"
         id="path5522" /><path
         d="m 555,2925 33.148,0"
         style="fill:none;stroke:#262626;stroke-opacity:1;stroke-width:5.0025;stroke-linecap:square;stroke-linejoin:round;stroke-miterlimit:10;stroke-dasharray:none"
         id="path5524" /><path
         d="m 3870,345 -33.15,0"
         style="fill:none;stroke:#262626;stroke-opacity:1;stroke-width:5.0025;stroke-linecap:square;stroke-linejoin:round;stroke-miterlimit:10;stroke-dasharray:none"
         id="path5526" /><path
         d="m 3870,603 -33.15,0"
         style="fill:none;stroke:#262626;stroke-opacity:1;stroke-width:5.0025;stroke-linecap:square;stroke-linejoin:round;stroke-miterlimit:10;stroke-dasharray:none"
         id="path5528" /><path
         d="m 3870,861 -33.15,0"
         style="fill:none;stroke:#262626;stroke-opacity:1;stroke-width:5.0025;stroke-linecap:square;stroke-linejoin:round;stroke-miterlimit:10;stroke-dasharray:none"
         id="path5530" /><path
         d="m 3870,1119 -33.15,0"
         style="fill:none;stroke:#262626;stroke-opacity:1;stroke-width:5.0025;stroke-linecap:square;stroke-linejoin:round;stroke-miterlimit:10;stroke-dasharray:none"
         id="path5532" /><path
         d="m 3870,1377 -33.15,0"
         style="fill:none;stroke:#262626;stroke-opacity:1;stroke-width:5.0025;stroke-linecap:square;stroke-linejoin:round;stroke-miterlimit:10;stroke-dasharray:none"
         id="path5534" /><path
         d="m 3870,1635 -33.15,0"
         style="fill:none;stroke:#262626;stroke-opacity:1;stroke-width:5.0025;stroke-linecap:square;stroke-linejoin:round;stroke-miterlimit:10;stroke-dasharray:none"
         id="path5536" /><path
         d="m 3870,1893 -33.15,0"
         style="fill:none;stroke:#262626;stroke-opacity:1;stroke-width:5.0025;stroke-linecap:square;stroke-linejoin:round;stroke-miterlimit:10;stroke-dasharray:none"
         id="path5538" /><path
         d="m 3870,2151 -33.15,0"
         style="fill:none;stroke:#262626;stroke-opacity:1;stroke-width:5.0025;stroke-linecap:square;stroke-linejoin:round;stroke-miterlimit:10;stroke-dasharray:none"
         id="path5540" /><path
         d="m 3870,2409 -33.15,0"
         style="fill:none;stroke:#262626;stroke-opacity:1;stroke-width:5.0025;stroke-linecap:square;stroke-linejoin:round;stroke-miterlimit:10;stroke-dasharray:none"
         id="path5542" /><path
         d="m 3870,2667 -33.15,0"
         style="fill:none;stroke:#262626;stroke-opacity:1;stroke-width:5.0025;stroke-linecap:square;stroke-linejoin:round;stroke-miterlimit:10;stroke-dasharray:none"
         id="path5544" /><path
         d="m 3870,2925 -33.15,0"
         style="fill:none;stroke:#262626;stroke-opacity:1;stroke-width:5.0025;stroke-linecap:square;stroke-linejoin:round;stroke-miterlimit:10;stroke-dasharray:none"
         id="path5546" /><g
         id="g5548"
         transform="scale(10,10)"><text
           transform="matrix(1,0,0,-1,41.75,31.125)"
           id="text5550"><tspan
             style="fill:#262626;fill-opacity:1;fill-rule:nonzero;stroke:none;font-family:Helvetica;font-variant:normal;font-weight:normal;font-size:9.75;writing-mode:lr;-inkscape-font-specification:Helvetica"
             x="0 3.24675"
             y="0"
             sodipodi:role="line"
             id="tspan5552">-1</tspan><tspan
             style="fill:#262626;fill-opacity:1;fill-rule:nonzero;stroke:none;font-family:Helvetica;font-variant:normal;font-weight:normal;font-size:9.75;writing-mode:lr;-inkscape-font-specification:Helvetica"
             x="3"
             y="-25.8"
             id="tspan5554">0</tspan><tspan
             style="fill:#262626;fill-opacity:1;fill-rule:nonzero;stroke:none;font-family:Helvetica;font-variant:normal;font-weight:normal;font-size:9.75;writing-mode:lr;-inkscape-font-specification:Helvetica"
             x="3"
             y="-51.6"
             id="tspan5556">1</tspan><tspan
             style="fill:#262626;fill-opacity:1;fill-rule:nonzero;stroke:none;font-family:Helvetica;font-variant:normal;font-weight:normal;font-size:9.75;writing-mode:lr;-inkscape-font-specification:Helvetica"
             x="3"
             y="-77.4"
             id="tspan5558">2</tspan><tspan
             style="fill:#262626;fill-opacity:1;fill-rule:nonzero;stroke:none;font-family:Helvetica;font-variant:normal;font-weight:normal;font-size:9.75;writing-mode:lr;-inkscape-font-specification:Helvetica"
             x="3"
             y="-103.2"
             id="tspan5560">3</tspan><tspan
             style="fill:#262626;fill-opacity:1;fill-rule:nonzero;stroke:none;font-family:Helvetica;font-variant:normal;font-weight:normal;font-size:9.75;writing-mode:lr;-inkscape-font-specification:Helvetica"
             x="3"
             y="-129"
             id="tspan5562">4</tspan><tspan
             style="fill:#262626;fill-opacity:1;fill-rule:nonzero;stroke:none;font-family:Helvetica;font-variant:normal;font-weight:normal;font-size:9.75;writing-mode:lr;-inkscape-font-specification:Helvetica"
             x="3"
             y="-154.8"
             id="tspan5564">5</tspan><tspan
             style="fill:#262626;fill-opacity:1;fill-rule:nonzero;stroke:none;font-family:Helvetica;font-variant:normal;font-weight:normal;font-size:9.75;writing-mode:lr;-inkscape-font-specification:Helvetica"
             x="3"
             y="-180.6"
             id="tspan5566">6</tspan><tspan
             style="fill:#262626;fill-opacity:1;fill-rule:nonzero;stroke:none;font-family:Helvetica;font-variant:normal;font-weight:normal;font-size:9.75;writing-mode:lr;-inkscape-font-specification:Helvetica"
             x="3"
             y="-206.4"
             id="tspan5568">7</tspan><tspan
             style="fill:#262626;fill-opacity:1;fill-rule:nonzero;stroke:none;font-family:Helvetica;font-variant:normal;font-weight:normal;font-size:9.75;writing-mode:lr;-inkscape-font-specification:Helvetica"
             x="3"
             y="-232.2"
             id="tspan5570">8</tspan><tspan
             style="fill:#262626;fill-opacity:1;fill-rule:nonzero;stroke:none;font-family:Helvetica;font-variant:normal;font-weight:normal;font-size:9.75;writing-mode:lr;-inkscape-font-specification:Helvetica"
             x="3"
             y="-258"
             id="tspan5572">9</tspan></text>
</g><g
         id="g5574"
         transform="scale(10,10)"><text
           transform="matrix(1,0,0,-1,106.125,297.563)"
           id="text5576"><tspan
             style="fill:#000000;fill-opacity:1;fill-rule:nonzero;stroke:none;font-family:Helvetica;font-variant:normal;font-weight:bold;font-size:11.25;writing-mode:lr;-inkscape-font-specification:Helvetica-Bold"
             x="0 3.1275 6.87375 14.99625 18.12375 21.87 26.24625 32.50125 39.375 45.63 49.37625 56.25 60.62625 70.6275 76.8825 80.62875 83.75625 90.63 97.50375 100.63125 107.505 114.37875 120.63375 127.5075 130.635 133.7625 140.0175 146.2725 150.01875 156.27375 159.40125 166.275 173.14875 180.0225 186.2775"
             y="0"
             sodipodi:role="line"
             id="tspan5578">I-N transformation ducplicate nodes</tspan></text>
</g><path
         d="m 1988.75,2658.75 -5.86,14.14 -14.14,5.86 -14.14,-5.86 -5.86,-14.14 5.86,-14.14 14.14,-5.86 14.14,5.86 5.86,14.14"
         style="fill:#0072bd;fill-opacity:1;fill-rule:nonzero;stroke:none"
         id="path5580" /><path
         d="m 1988.75,2658.75 -5.86,14.14 -14.14,5.86 -14.14,-5.86 -5.86,-14.14 5.86,-14.14 14.14,-5.86 14.14,5.86 5.86,14.14 z"
         style="fill:none;stroke:#0072bd;stroke-opacity:1;stroke-width:9.9975;stroke-linecap:butt;stroke-linejoin:round;stroke-miterlimit:10;stroke-dasharray:none"
         id="path5582" /><path
         d="m 3301.25,708.75 -5.86,14.145 -14.14,5.859 -14.14,-5.859 -5.86,-14.145 5.86,-14.145 14.14,-5.859 14.14,5.859 5.86,14.145"
         style="fill:#0072bd;fill-opacity:1;fill-rule:nonzero;stroke:none"
         id="path5584" /><path
         d="m 3301.25,708.75 -5.86,14.145 -14.14,5.859 -14.14,-5.859 -5.86,-14.145 5.86,-14.145 14.14,-5.859 14.14,5.859 5.86,14.145 z"
         style="fill:none;stroke:#0072bd;stroke-opacity:1;stroke-width:9.9975;stroke-linecap:butt;stroke-linejoin:round;stroke-miterlimit:10;stroke-dasharray:none"
         id="path5586" /><path
         d="m 1793.75,708.75 -5.86,14.145 -14.14,5.859 -14.14,-5.859 -5.86,-14.145 5.86,-14.145 14.14,-5.859 14.14,5.859 5.86,14.145"
         style="fill:#0072bd;fill-opacity:1;fill-rule:nonzero;stroke:none"
         id="path5588" /><path
         d="m 1793.75,708.75 -5.86,14.145 -14.14,5.859 -14.14,-5.859 -5.86,-14.145 5.86,-14.145 14.14,-5.859 14.14,5.859 5.86,14.145 z"
         style="fill:none;stroke:#0072bd;stroke-opacity:1;stroke-width:9.9975;stroke-linecap:butt;stroke-linejoin:round;stroke-miterlimit:10;stroke-dasharray:none"
         id="path5590" /><path
         d="m 1793.75,1638.75 -5.86,14.14 -14.14,5.86 -14.14,-5.86 -5.86,-14.14 5.86,-14.14 14.14,-5.86 14.14,5.86 5.86,14.14"
         style="fill:#0072bd;fill-opacity:1;fill-rule:nonzero;stroke:none"
         id="path5592" /><path
         d="m 1793.75,1638.75 -5.86,14.14 -14.14,5.86 -14.14,-5.86 -5.86,-14.14 5.86,-14.14 14.14,-5.86 14.14,5.86 5.86,14.14 z"
         style="fill:none;stroke:#0072bd;stroke-opacity:1;stroke-width:9.9975;stroke-linecap:butt;stroke-linejoin:round;stroke-miterlimit:10;stroke-dasharray:none"
         id="path5594" /><path
         d="m 2453.75,1428.75 -5.86,14.14 -14.14,5.86 -14.14,-5.86 -5.86,-14.14 5.86,-14.14 14.14,-5.86 14.14,5.86 5.86,14.14"
         style="fill:#0072bd;fill-opacity:1;fill-rule:nonzero;stroke:none"
         id="path5596" /><path
         d="m 2453.75,1428.75 -5.86,14.14 -14.14,5.86 -14.14,-5.86 -5.86,-14.14 5.86,-14.14 14.14,-5.86 14.14,5.86 5.86,14.14 z"
         style="fill:none;stroke:#0072bd;stroke-opacity:1;stroke-width:9.9975;stroke-linecap:butt;stroke-linejoin:round;stroke-miterlimit:10;stroke-dasharray:none"
         id="path5598" /><path
         d="m 1148.75,2351.25 -5.86,14.14 -14.14,5.86 -14.14,-5.86 -5.86,-14.14 5.86,-14.14 14.14,-5.86 14.14,5.86 5.86,14.14"
         style="fill:#0072bd;fill-opacity:1;fill-rule:nonzero;stroke:none"
         id="path5600" /><path
         d="m 1148.75,2351.25 -5.86,14.14 -14.14,5.86 -14.14,-5.86 -5.86,-14.14 5.86,-14.14 14.14,-5.86 14.14,5.86 5.86,14.14 z"
         style="fill:none;stroke:#0072bd;stroke-opacity:1;stroke-width:9.9975;stroke-linecap:butt;stroke-linejoin:round;stroke-miterlimit:10;stroke-dasharray:none"
         id="path5602" /><path
         d="m 2453.75,708.75 -5.86,14.145 -14.14,5.859 -14.14,-5.859 -5.86,-14.145 5.86,-14.145 14.14,-5.859 14.14,5.859 5.86,14.145"
         style="fill:#0072bd;fill-opacity:1;fill-rule:nonzero;stroke:none"
         id="path5604" /><path
         d="m 2453.75,708.75 -5.86,14.145 -14.14,5.859 -14.14,-5.859 -5.86,-14.145 5.86,-14.145 14.14,-5.859 14.14,5.859 5.86,14.145 z"
         style="fill:none;stroke:#0072bd;stroke-opacity:1;stroke-width:9.9975;stroke-linecap:butt;stroke-linejoin:round;stroke-miterlimit:10;stroke-dasharray:none"
         id="path5606" /><path
         d="m 1148.75,1421.25 -5.86,14.14 -14.14,5.86 -14.14,-5.86 -5.86,-14.14 5.86,-14.14 14.14,-5.86 14.14,5.86 5.86,14.14"
         style="fill:#0072bd;fill-opacity:1;fill-rule:nonzero;stroke:none"
         id="path5608" /><path
         d="m 1148.75,1421.25 -5.86,14.14 -14.14,5.86 -14.14,-5.86 -5.86,-14.14 5.86,-14.14 14.14,-5.86 14.14,5.86 5.86,14.14 z"
         style="fill:none;stroke:#0072bd;stroke-opacity:1;stroke-width:9.9975;stroke-linecap:butt;stroke-linejoin:round;stroke-miterlimit:10;stroke-dasharray:none"
         id="path5610" /><g
         id="g5612"
         transform="scale(10,10)"><text
           transform="matrix(1,0,0,-1,201.705,262.548)"
           id="text5614"><tspan
             style="fill:#000000;fill-opacity:1;fill-rule:nonzero;stroke:none;font-family:Helvetica;font-variant:normal;font-weight:normal;font-size:8.25;writing-mode:lr;-inkscape-font-specification:Helvetica"
             x="0 5.50275 10.08975 12.837"
             y="0"
             sodipodi:role="line"
             id="tspan5616">V1-1</tspan><tspan
             style="fill:#000000;fill-opacity:1;fill-rule:nonzero;stroke:none;font-family:Helvetica;font-variant:normal;font-weight:normal;font-size:8.25;writing-mode:lr;-inkscape-font-specification:Helvetica"
             x="126.345 130.932 136.43475 141.02175 143.769 -24.251 -19.664 -14.16125 -9.57425 -6.827"
             y="194.547"
             sodipodi:role="line"
             id="tspan5618"> V2-2 V2-4</tspan><tspan
             style="fill:#000000;fill-opacity:1;fill-rule:nonzero;stroke:none;font-family:Helvetica;font-variant:normal;font-weight:normal;font-size:8.25;writing-mode:lr;-inkscape-font-specification:Helvetica"
             x="-24.089281 -19.502281 -13.999531 -9.412531 -6.665281"
             y="101.8072"
             sodipodi:role="line"
             id="tspan5620"> V2-6</tspan><tspan
             style="fill:#000000;fill-opacity:1;fill-rule:nonzero;stroke:none;font-family:Helvetica;font-variant:normal;font-weight:normal;font-size:8.25;writing-mode:lr;-inkscape-font-specification:Helvetica"
             x="41.835319 46.422319 51.925069 56.512069 59.259319"
             y="122.5642"
             sodipodi:role="line"
             id="tspan5622"> V3-5</tspan><tspan
             style="fill:#000000;fill-opacity:1;fill-rule:nonzero;stroke:none;font-family:Helvetica;font-variant:normal;font-weight:normal;font-size:8.25;writing-mode:lr;-inkscape-font-specification:Helvetica"
             x="-89.096681 -84.509681 -79.006931 -74.419931 -71.672681"
             y="30.6802"
             sodipodi:role="line"
             id="tspan5624"> V3-6</tspan><tspan
             style="fill:#000000;fill-opacity:1;fill-rule:nonzero;stroke:none;font-family:Helvetica;font-variant:normal;font-weight:normal;font-size:8.25;writing-mode:lr;-inkscape-font-specification:Helvetica"
             x="41.835319 46.422319 51.925069 56.512069 59.259319"
             y="194.5472"
             sodipodi:role="line"
             id="tspan5626"> V6-3</tspan><tspan
             style="fill:#000000;fill-opacity:1;fill-rule:nonzero;stroke:none;font-family:Helvetica;font-variant:normal;font-weight:normal;font-size:8.25;writing-mode:lr;-inkscape-font-specification:Helvetica"
             x="-89.096681 -84.509681 -79.006931 -74.419931 -71.672681"
             y="123.2089"
             sodipodi:role="line"
             id="tspan5628"> V6-4</tspan></text>
</g><text
         xml:space="preserve"
         style="font-size:104px;font-style:normal;font-variant:normal;font-weight:normal;font-stretch:normal;line-height:125%;letter-spacing:0px;word-spacing:0px;fill:#f10e0e;fill-opacity:1;stroke:none;font-family:Waree;-inkscape-font-specification:Waree"
         x="2048"
         y="-2816"
         id="text3092"
         sodipodi:linespacing="125%"
         transform="scale(1,-1)"><tspan
           sodipodi:role="line"
           id="tspan3094"
           x="2048"
           y="-2816">t1</tspan></text>
<text
         transform="scale(1,-1)"
         sodipodi:linespacing="125%"
         id="text3864"
         y="-1536"
         x="1088"
         style="font-size:104px;font-style:normal;font-variant:normal;font-weight:normal;font-stretch:normal;line-height:125%;letter-spacing:0px;word-spacing:0px;fill:#f10e0e;fill-opacity:1;stroke:none;font-family:Waree;-inkscape-font-specification:Waree"
         xml:space="preserve"><tspan
           y="-1536"
           x="1088"
           id="tspan3866"
           sodipodi:role="line">t4</tspan></text>
<text
         xml:space="preserve"
         style="font-size:104px;font-style:normal;font-variant:normal;font-weight:normal;font-stretch:normal;line-height:125%;letter-spacing:0px;word-spacing:0px;fill:#f10e0e;fill-opacity:1;stroke:none;font-family:Waree;-inkscape-font-specification:Waree"
         x="1024"
         y="-2432"
         id="text3868"
         sodipodi:linespacing="125%"
         transform="scale(1,-1)"><tspan
           sodipodi:role="line"
           id="tspan3870"
           x="1024"
           y="-2432">t6</tspan></text>
<text
         transform="scale(1,-1)"
         sodipodi:linespacing="125%"
         id="text3872"
         y="-1024"
         x="2240"
         style="font-size:104px;font-style:normal;font-variant:normal;font-weight:normal;font-stretch:normal;line-height:125%;letter-spacing:0px;word-spacing:0px;fill:#f10e0e;fill-opacity:1;stroke:none;font-family:Waree;-inkscape-font-specification:Waree"
         xml:space="preserve"><tspan
           y="-1024"
           x="2240"
           id="tspan3874"
           sodipodi:role="line">t3</tspan></text>
<text
         xml:space="preserve"
         style="font-size:104px;font-style:normal;font-variant:normal;font-weight:normal;font-stretch:normal;line-height:125%;letter-spacing:0px;word-spacing:0px;fill:#f10e0e;fill-opacity:1;stroke:none;font-family:Waree;-inkscape-font-specification:Waree"
         x="3200"
         y="-960"
         id="text3876"
         sodipodi:linespacing="125%"
         transform="scale(1,-1)"><tspan
           sodipodi:role="line"
           id="tspan3878"
           x="3200"
           y="-960">t2</tspan></text>
<text
         transform="scale(1,-1)"
         sodipodi:linespacing="125%"
         id="text3880"
         y="-1600"
         x="2432"
         style="font-size:104px;font-style:normal;font-variant:normal;font-weight:normal;font-stretch:normal;line-height:125%;letter-spacing:0px;word-spacing:0px;fill:#f10e0e;fill-opacity:1;stroke:none;font-family:Waree;-inkscape-font-specification:Waree"
         xml:space="preserve"><tspan
           y="-1600"
           x="2432"
           id="tspan3882"
           sodipodi:role="line">t5</tspan></text>
</g><path
       sodipodi:type="arc"
       style="opacity:0.2;fill:#8c8eb1;fill-opacity:1"
       id="path5630"
       sodipodi:cx="231.51379"
       sodipodi:cy="114.27806"
       sodipodi:rx="98.541771"
       sodipodi:ry="17.808754"
       d="m 330.05556,114.27806 c 0,9.8355 -44.11865,17.80875 -98.54177,17.80875 -54.42311,0 -98.54177,-7.97325 -98.54177,-17.80875 0,-9.8355 44.11866,-17.808753 98.54177,-17.808753 54.42312,0 98.54177,7.973253 98.54177,17.808753 z"
       transform="matrix(0.3869977,-0.42617319,-0.41553007,-0.40008723,102.57048,344.33673)" /><path
       transform="matrix(0.3869977,-0.42617319,-0.41553007,-0.40008723,102.8159,251.25631)"
       d="m 330.05556,114.27806 a 98.541771,17.808754 0 1 1 -197.08354,0 98.541771,17.808754 0 1 1 197.08354,0 z"
       sodipodi:ry="17.808754"
       sodipodi:rx="98.541771"
       sodipodi:cy="114.27806"
       sodipodi:cx="231.51379"
       id="path3082"
       style="opacity:0.2;fill:#8c8eb1;fill-opacity:1"
       sodipodi:type="arc" /><path
       transform="matrix(0.21799612,-0.14607453,0.21621607,-1.100696,168.73315,302.86802)"
       d="m 330.05556,114.27806 a 98.541771,17.808754 0 1 1 -197.08354,0 98.541771,17.808754 0 1 1 197.08354,0 z"
       sodipodi:ry="17.808754"
       sodipodi:rx="98.541771"
       sodipodi:cy="114.27806"
       sodipodi:cx="231.51379"
       id="path3084"
       style="opacity:0.2;fill:#8c8eb1;fill-opacity:1"
       sodipodi:type="arc" /><path
       sodipodi:type="arc"
       style="opacity:0.2;fill:#8c8eb1;fill-opacity:1"
       id="path3086"
       sodipodi:cx="231.51379"
       sodipodi:cy="114.27806"
       sodipodi:rx="98.541771"
       sodipodi:ry="17.808754"
       d="m 330.05556,114.27806 a 98.541771,17.808754 0 1 1 -197.08354,0 98.541771,17.808754 0 1 1 197.08354,0 z"
       transform="matrix(0.21799612,-0.14607453,0.21621607,-1.100696,167.72573,232.34895)" /><path
       transform="matrix(0.21799612,-0.14607453,0.21621607,-1.100696,251.00539,232.01314)"
       d="m 330.05556,114.27806 a 98.541771,17.808754 0 1 1 -197.08354,0 98.541771,17.808754 0 1 1 197.08354,0 z"
       sodipodi:ry="17.808754"
       sodipodi:rx="98.541771"
       sodipodi:cy="114.27806"
       sodipodi:cx="231.51379"
       id="path3088"
       style="opacity:0.2;fill:#8c8eb1;fill-opacity:1"
       sodipodi:type="arc" /><path
       sodipodi:type="arc"
       style="opacity:0.2;fill:#8c8eb1;fill-opacity:1"
       id="path3090"
       sodipodi:cx="231.51379"
       sodipodi:cy="114.27806"
       sodipodi:rx="98.541771"
       sodipodi:ry="17.808754"
       d="m 330.05556,114.27806 a 98.541771,17.808754 0 1 1 -197.08354,0 98.541771,17.808754 0 1 1 197.08354,0 z"
       transform="matrix(0.21799612,-0.14607453,0.21621607,-1.100696,121.38463,424.76526)" /></g></svg>